# Alias OBJ Model File
# Exported from SketchUp, (c) 2000-2012 Trimble Navigation Limited
# File units = inches

mtllib BlackKey.mtl

g Mesh1 Model

usemtl _1
v 2.8125 0 14
vt -2.8125 -14
vn 0 -1 -0
v 0 0 14
vt 0 -14
v 0 0 -0
vt 0 0
v 2.8125 0 -0
vt -2.8125 0
f 1/1/1 2/2/1 3/3/1 4/4/1 

vn 0 0 1
vt 2.8125 0
v 2.8125 2.1875 14
vt 2.8125 2.1875
v 0 2.1875 14
vt 0 2.1875
f 2/3/2 1/5/2 5/6/2 6/7/2 

vt -14 0
vn 1 0 -0
v 2.8125 2.1875 -0
vt -14 2.1875
f 1/8/3 4/3/3 7/7/3 5/9/3 

vn 0 0 -1
v 0 2.1875 -0
vt -2.8125 2.1875
f 4/4/4 3/3/4 8/7/4 7/10/4 

vn -1 0 -0
vt 14 0
vt 14 2.1875
f 3/3/5 2/11/5 6/12/5 8/7/5 

vn 0 1 -0
vt 2.8125 -14
f 6/2/6 5/13/6 7/5/6 8/3/6 

